<?xml version="1.0" standalone="no"?>
<!DOCTYPE svg PUBLIC "-//W3C//DTD SVG 20010904//EN"
 "http://www.w3.org/TR/2001/REC-SVG-20010904/DTD/svg10.dtd">
<svg version="1.0" xmlns="http://www.w3.org/2000/svg"
 width="700.000000pt" height="700.000000pt" viewBox="0 0 700.000000 700.000000"
 preserveAspectRatio="xMidYMid meet">
<metadata>
Created by potrace 1.14, written by Peter Selinger 2001-2017
</metadata>
<g transform="translate(0.000000,700.000000) scale(0.100000,-0.100000)"
fill="#000000" stroke="none">
<path d="M3420 6397 c-25 -7 -571 -276 -1214 -598 -1244 -622 -1245 -622
-1281 -711 -21 -52 -30 -170 -29 -388 0 -148 10 -362 19 -422 2 -13 6 -48 9
-78 15 -127 18 -149 32 -235 8 -49 22 -124 30 -165 9 -41 18 -86 20 -100 3
-14 7 -33 10 -42 3 -9 7 -26 9 -37 8 -34 13 -52 35 -131 12 -41 25 -91 30
-110 29 -113 134 -394 212 -570 36 -83 170 -345 189 -372 10 -14 19 -28 19
-31 0 -27 320 -500 370 -547 3 -3 16 -18 29 -35 99 -129 333 -374 496 -520 50
-44 92 -83 95 -86 3 -3 50 -41 105 -85 55 -43 104 -83 110 -87 98 -79 318
-227 505 -339 212 -128 224 -133 310 -133 79 0 72 -2 225 84 161 91 571 374
625 431 3 3 39 33 80 66 128 104 149 124 325 299 169 167 322 342 437 500 33
44 65 87 71 95 7 8 35 49 62 90 27 41 53 77 57 78 4 2 8 7 8 12 0 4 31 59 68
121 238 395 410 816 523 1274 11 44 24 96 29 115 10 39 27 119 35 165 3 17 7
41 9 55 12 65 35 222 41 280 4 36 9 73 10 82 11 55 19 252 19 448 l1 225 -29
57 c-33 65 -96 136 -153 170 -21 13 -560 283 -1198 601 l-1160 579 -75 4 c-44
2 -93 -2 -120 -9z"/>
</g>
</svg>
