<?xml version="1.0" standalone="no"?>
<!DOCTYPE svg PUBLIC "-//W3C//DTD SVG 20010904//EN"
 "http://www.w3.org/TR/2001/REC-SVG-20010904/DTD/svg10.dtd">
<svg version="1.0" xmlns="http://www.w3.org/2000/svg"
 width="700.000000pt" height="700.000000pt" viewBox="0 0 700.000000 700.000000"
 preserveAspectRatio="xMidYMid meet">
<metadata>
Created by potrace 1.14, written by Peter Selinger 2001-2017
</metadata>
<g transform="translate(0.000000,700.000000) scale(0.100000,-0.100000)"
fill="#000000" stroke="none">
<path d="M3428 6400 c-20 -5 -568 -275 -1217 -600 -825 -412 -1193 -601 -1222
-627 -69 -63 -78 -92 -90 -286 -31 -498 67 -1158 252 -1693 369 -1069 1088
-1917 2146 -2532 217 -126 250 -125 479 11 1230 734 2018 1832 2288 3187 65
325 102 715 94 992 -4 134 -6 147 -33 202 -16 32 -53 81 -81 110 -48 47 -147
98 -1240 644 l-1189 594 -75 3 c-41 3 -92 0 -112 -5z m1507 -1880 l230 -230
-127 -127 c-69 -71 -520 -528 -1002 -1018 -482 -490 -880 -891 -884 -893 -4
-1 -249 240 -545 536 l-537 537 234 234 234 234 302 -289 c166 -159 305 -290
309 -292 3 -1 353 344 776 768 423 423 772 770 775 770 3 0 109 -103 235 -230z"/>
</g>
</svg>
